<svg id="Capa_1" data-name="Capa 1" xmlns="http://www.w3.org/2000/svg" viewBox="0 0 944.38 411.25"><defs><style>.cls-1{fill:#000563;}.cls-2{fill:#00d0cd;}</style></defs><path class="cls-1" d="M781.73,95.3c-43.77,0-65.05,20.07-65.05,61.36v45C716.68,243,738,263,781.73,263c23.18,0,39.69-5.34,50.49-16.32,9.95-10.12,14.78-24.86,14.78-45v-45C847,115.37,825.65,95.3,781.73,95.3Zm23.45,103.32c0,19.43-4.38,23.89-23.45,23.89-18.89,0-23.23-4.46-23.23-23.89V159.7c0-19.42,4.34-23.88,23.23-23.88,19.07,0,23.45,4.46,23.45,23.88Z"/><path class="cls-1" d="M265.51,97.38h29.73a6.71,6.71,0,0,1,6.51,4.64l34.68,106.86c1.55,5,4.34,6.5,7.13,6.5,3.1,0,6.5-1.55,8.05-6.5L385.68,102a6.71,6.71,0,0,1,6.51-4.64h29.73c5.88,0,8.36,3.72,6.5,9L390.33,219.72c-5,14.86-13.63,25.7-25.09,29.11v58.23a6.5,6.5,0,0,1-6.82,6.81H328.69a6.5,6.5,0,0,1-6.81-6.81V248.52c-11.15-3.4-19.51-14.25-24.47-28.8L259,106.36C257.15,101.1,259.63,97.38,265.51,97.38Z"/><path class="cls-1" d="M440.54,306.46l18.52-177.2c2.78-25.62,19.14-34,39.82-34,21.3,0,36.12,10.81,40.75,32.42l22.54,108.05c.31,1.54.62,3.09,2.78,3.09s2.47-1.55,2.77-3.09l22.54-108C594.89,105.8,610,95.3,631,95.3s37.36,8.34,40.14,34l18.52,177.2c.62,4.33-2.16,7.41-6.49,7.41H652.93a6.53,6.53,0,0,1-6.79-6.17L632.56,143.15a2.91,2.91,0,0,0-3.09-3.08,3,3,0,0,0-3.09,2.78l-23.15,108c-3.71,16.68-13.89,32.73-38.28,32.73-24.08,0-34.27-16.05-38-32.73l-23.16-108a3.3,3.3,0,0,0-3.39-2.78c-2.16,0-2.78,1.54-2.78,3.08L483.76,307.7a6.53,6.53,0,0,1-6.8,6.17H447C442.7,313.87,439.92,310.79,440.54,306.46Z"/><path class="cls-1" d="M260.51,305.57l-39.07-175c-5.23-23.38-24-35.38-44.91-35.38-21.22,0-39.06,12-44.29,35.38l-39.69,175c-1.22,4.92,1.54,8.3,6.77,8.3h29.84a6.94,6.94,0,0,0,6.77-5.23l8-38.76,8-38.45,18.77-90.13c.92-4.92,3.38-6.45,5.84-6.45s5.23,1.53,6.15,6.45l19.07,90.13,7.7,38.45,7.69,38.45c.92,3.39,3.38,5.54,6.76,5.54h30.15C259,313.87,261.74,310.49,260.51,305.57Z"/><rect class="cls-2" x="766.71" y="250.05" width="30.26" height="97.38" rx="6.55" transform="translate(483.1 1080.59) rotate(-90)"/></svg>