<svg id="Capa_1" data-name="Capa 1" xmlns="http://www.w3.org/2000/svg" viewBox="0 0 1255.93 411.25"><defs><style>.cls-1,.cls-4{fill:#000563;}.cls-2,.cls-3{fill:#00d0cd;}.cls-3,.cls-4{fill-rule:evenodd;}</style></defs><path class="cls-1" d="M1093.28,95.3c-43.77,0-65,20.07-65,61.36v45c0,41.28,21.28,61.35,65,61.35,23.17,0,39.69-5.34,50.48-16.32,10-10.12,14.79-24.86,14.79-45v-45C1158.55,115.37,1137.2,95.3,1093.28,95.3Zm23.45,103.32c0,19.43-4.38,23.89-23.45,23.89-18.89,0-23.23-4.46-23.23-23.89V159.7c0-19.42,4.34-23.88,23.23-23.88,19.07,0,23.45,4.46,23.45,23.88Z"/><path class="cls-1" d="M577.06,97.38h29.73a6.68,6.68,0,0,1,6.5,4.64L648,208.88c1.55,5,4.34,6.5,7.13,6.5,3.09,0,6.5-1.55,8-6.5L697.23,102a6.69,6.69,0,0,1,6.5-4.64h29.73c5.89,0,8.37,3.72,6.51,9l-38.1,113.36c-5,14.86-13.62,25.7-25.08,29.11v58.23a6.5,6.5,0,0,1-6.82,6.81H640.24a6.5,6.5,0,0,1-6.82-6.81V248.52c-11.14-3.4-19.51-14.25-24.46-28.8L570.55,106.36C568.69,101.1,571.17,97.38,577.06,97.38Z"/><path class="cls-1" d="M752.08,306.46l18.53-177.2c2.77-25.62,19.14-34,39.82-34,21.3,0,36.12,10.81,40.75,32.42l22.54,108.05c.31,1.54.61,3.09,2.78,3.09s2.46-1.55,2.77-3.09l22.54-108c4.63-21.92,19.76-32.42,40.75-32.42s37.35,8.34,40.13,34l18.52,177.2c.62,4.33-2.16,7.41-6.48,7.41H964.48a6.52,6.52,0,0,1-6.79-6.17L944.1,143.15a2.9,2.9,0,0,0-3.08-3.08,3,3,0,0,0-3.09,2.78l-23.16,108c-3.7,16.68-13.89,32.73-38.27,32.73-24.09,0-34.27-16.05-38-32.73l-23.15-108a3.3,3.3,0,0,0-3.4-2.78c-2.16,0-2.78,1.54-2.78,3.08L795.3,307.7a6.52,6.52,0,0,1-6.79,6.17H758.57C754.25,313.87,751.47,310.79,752.08,306.46Z"/><path class="cls-1" d="M572.06,305.57,533,130.54c-5.23-23.38-24-35.38-44.91-35.38-21.23,0-39.07,12-44.3,35.38l-39.68,175c-1.23,4.92,1.54,8.3,6.77,8.3h29.84a6.94,6.94,0,0,0,6.77-5.23l8-38.76,8-38.45,18.76-90.13c.93-4.92,3.39-6.45,5.85-6.45s5.23,1.53,6.15,6.45l19.07,90.13L521,269.88l7.69,38.45c.93,3.39,3.39,5.54,6.77,5.54H565.6C570.52,313.87,573.29,310.49,572.06,305.57Z"/><rect class="cls-2" x="1044.7" y="283.61" width="97.38" height="30.26" rx="6.55"/><path class="cls-2" d="M227.61,88.85a22.74,22.74,0,0,0-2-4.13c-.2-.33-.4-.65-.61-1a23.57,23.57,0,0,0-17.15-10.29,23.86,23.86,0,0,0-2.41-.12c-.41,0-.81,0-1.21,0A23.48,23.48,0,0,0,188,81.09c-.25.27-.5.56-.74.85-.48.59-.93,1.19-1.35,1.82a23.52,23.52,0,0,0-4,13.21v38.8h47.17V97A23.47,23.47,0,0,0,227.61,88.85Zm-22.15,24.38a16.42,16.42,0,1,1,16.42-16.42A16.42,16.42,0,0,1,205.46,113.23Z"/><path id="Fill-374" class="cls-3" d="M186.66,186.65h-32.3a3.85,3.85,0,0,0-3.85,3.85v51.67h40V190.5a3.85,3.85,0,0,0-3.85-3.85"/><path id="Fill-378" class="cls-3" d="M256.68,186.65h-32.3a3.85,3.85,0,0,0-3.85,3.85v51.67h40V190.5a3.85,3.85,0,0,0-3.85-3.85"/><path id="Fill-402" class="cls-3" d="M116,186.65H103.65v41.26H116a3.83,3.83,0,0,0,3.82-3.85V190.5a3.83,3.83,0,0,0-3.82-3.85"/><path id="Fill-406" class="cls-3" d="M307.27,186.65H295.05a3.83,3.83,0,0,0-3.82,3.85v33.56a3.83,3.83,0,0,0,3.82,3.85h12.22Z"/><path class="cls-4" d="M305.64,105.61a27.6,27.6,0,0,0-19.09-7.9H246.1a3,3,0,0,0-2.95,3v.56a3,3,0,0,0,2.95,3h40.45a21.08,21.08,0,0,1,14.51,6,20.38,20.38,0,0,1,6,14.51V174h-31v-15.6a3,3,0,0,0-1.82-2.79l-65.18-28.86a8.8,8.8,0,0,0-7.11,0l-65.1,28.86a3.06,3.06,0,0,0-1.82,2.78L135,174H103.85V124.7a20.52,20.52,0,0,1,20.52-20.52h40.45a3,3,0,0,0,3-3v-.56a3,3,0,0,0-3-3H124.37a27,27,0,0,0-27,27V286.88a27,27,0,0,0,27,27H286.55a27,27,0,0,0,27-27V124.7A27,27,0,0,0,305.64,105.61Zm-109,46.72V146.5a8.8,8.8,0,1,1,17.59,0v11.66a8.8,8.8,0,1,1-17.59,0Zm-92.82,28.58H307.07v56.33H264v-20h12.08a3.48,3.48,0,1,0,0-6.95H135a3.48,3.48,0,0,0,0,6.95H147v20H103.85Zm153.21,36.28v20H243.9v-20Zm-20.11,0v20H224v-20Zm-19.89,0v20H194v-20Zm-30,0v20H174v-20Zm-20,0v20H154v-20Zm-63.08,27H307.07v10.37a27.41,27.41,0,0,0-22.95,27.11V307.4H268.33V282.07a27.46,27.46,0,0,0-54.92,0l.16,25.33H197.63V282.08a27.46,27.46,0,0,0-54.92,0V307.4H126.93V281.83a27.43,27.43,0,0,0-23.08-27.14V244.17Z"/></svg>